<svg id="Capa_1" data-name="Capa 1" xmlns="http://www.w3.org/2000/svg" viewBox="0 0 512 512"><path fill="#28005f" fill-opacity="0.7" d="M2.12,172.44a12.92,12.92,0,0,0,8.16,5.37l12.58,2.51v78.94a12.5,12.5,0,0,0,7.57,11.4l229.34,100.7L104,449.78a12.38,12.38,0,0,0-6.33,14.94l12.77,38.6A12.87,12.87,0,0,0,122.74,512a13.2,13.2,0,0,0,3.94-.61l268.8-84a12.73,12.73,0,0,0,7.51-6.19l56.44-106.82a12.34,12.34,0,0,0-5.58-16.84l-51.67-25.78h96.95A12.69,12.69,0,0,0,512,259.26V103a12.62,12.62,0,0,0-10.28-12.26L47.78.26A12.87,12.87,0,0,0,32.58,10L.26,163A12.28,12.28,0,0,0,2.12,172.44Z" transform="translate(0 0)"/></svg>
