<svg id="Capa_1" data-name="Capa 1" xmlns="http://www.w3.org/2000/svg" viewBox="0 0 512 512"><path fill="#28005f" fill-opacity="0.7" d="M511.74,163,479.42,10A12.87,12.87,0,0,0,464.22.26L10.28,90.77A12.62,12.62,0,0,0,0,103V259.26a12.69,12.69,0,0,0,12.87,12.51h96.95L58.15,297.55a12.34,12.34,0,0,0-5.58,16.84L109,421.21a12.73,12.73,0,0,0,7.51,6.19l268.8,84a13.2,13.2,0,0,0,3.94.61,12.87,12.87,0,0,0,12.26-8.68l12.77-38.6A12.38,12.38,0,0,0,408,449.78L252.23,371.36l229.34-100.7a12.5,12.5,0,0,0,7.57-11.4V180.32l12.58-2.51a12.92,12.92,0,0,0,8.16-5.37A12.28,12.28,0,0,0,511.74,163Z" transform="translate(0)"/></svg>
