<svg id="Capa_1" data-name="Capa 1" xmlns="http://www.w3.org/2000/svg" viewBox="0 0 512 512"><path fill="#28005f" fill-opacity="0.7" d="M369.22,512h0L243.63,512c-26.72,0-49.15-10.83-63.2-30.36-11-15.22-14.21-33.11-9.52-49.9-20.59-7.74-38.2-21.59-49.59-39.34-11.6-18.08-15.78-38.32-12.18-58C57.84,315.1,18.5,273.91,5,224.41-9.33,171.6,7.36,118.74,50.81,79.4c32-28.94,70.15-50.53,113.55-64.17C256.07-13.61,358.26-1,437.7,48.93c38.42,24.15,63.91,60.18,71.77,101.45,7.93,41.61-2.94,83.46-30.62,117.84-21.18,26.31-51.31,46.3-85.69,57.06a81.43,81.43,0,0,1-9.45,41,92,92,0,0,1-25.95,30.41c14.45,18.61,17.07,42.85,5.93,64.11A63.21,63.21,0,0,1,356,472.21l22.64,18.33a11.39,11.39,0,0,1,3.59,13.58C380.15,508.87,375,512,369.22,512Z" transform="translate(0 0)"/></svg>
