<svg id="Capa_1" data-name="Capa 1" xmlns="http://www.w3.org/2000/svg" viewBox="0 0 512 512"><path fill="#28005f" fill-opacity="0.7" d="M129.77,504.12a11.39,11.39,0,0,1,3.59-13.58L156,472.21a63.21,63.21,0,0,1-7.69-11.43c-11.14-21.26-8.52-45.5,5.93-64.11a92,92,0,0,1-26-30.41,81.43,81.43,0,0,1-9.45-41c-34.38-10.76-64.51-30.75-85.69-57.06C5.47,233.84-5.4,192,2.53,150.38c7.86-41.27,33.35-77.3,71.77-101.45C153.74-1,255.93-13.61,347.64,15.23,391,28.87,429.24,50.46,461.19,79.4c43.45,39.34,60.14,92.2,45.77,145-13.46,49.5-52.8,90.69-104.1,109.9,3.6,19.72-.58,40-12.18,58-11.39,17.75-29,31.6-49.59,39.34,4.69,16.79,1.44,34.68-9.52,49.9C317.52,501.12,295.09,512,268.37,512L142.78,512h0C137,512,131.85,508.87,129.77,504.12Z" transform="translate(0 0)"/></svg>
