<svg id="Capa_1" data-name="Capa 1" xmlns="http://www.w3.org/2000/svg" viewBox="0 0 512 512"><path fill="#28005f" fill-opacity="0.7" d="M511.09,250.4c-5.66-51.45-38.54-95-83-111.24C425,104,398,76.63,365.54,77.61,345.75,30.79,302.86,0,256,0S166.3,30.8,146.49,77.59c-30.95.59-56.38,27-59.72,60.71C36.1,155.4.9,206.16,0,265.15c-.55,36.56,11.78,71,34.72,97.07s53.6,40.4,86.32,40.4H302L396.38,508a11.49,11.49,0,0,0,8.58,4,11.09,11.09,0,0,0,4.64-1,13.65,13.65,0,0,0,7.49-12.52v-99C477.25,384.64,518.77,320.25,511.09,250.4Z" transform="translate(0)"/></svg>
