<svg id="Capa_1" data-name="Capa 1" xmlns="http://www.w3.org/2000/svg" viewBox="0 0 512 512"><path fill="#28005f" fill-opacity="0.7" d="M94.91,399.42v99A13.65,13.65,0,0,0,102.4,511a11.09,11.09,0,0,0,4.64,1,11.49,11.49,0,0,0,8.58-4L210,402.62h180.9c32.72,0,63.37-14.35,86.32-40.4s35.27-60.51,34.72-97.07c-.88-59-36.08-109.75-86.75-126.85-3.34-33.72-28.77-60.12-59.72-60.71C345.7,30.8,302.78,0,256,0S166.25,30.79,146.46,77.61C114,76.63,87,104,83.94,139.16,39.45,155.43,6.57,199,.92,250.4-6.77,320.25,34.75,384.64,94.91,399.42Z" transform="translate(0 0)"/></svg>
