<svg id="Layer_1" data-name="Layer 1" xmlns="http://www.w3.org/2000/svg" viewBox="0 0 512 512"><path fill="#28005f" fill-opacity="0.7" d="M462,200.7l16.3-60.82a15,15,0,0,0-10.61-18.37l-60.92-16.32L390.49,44.27a15,15,0,0,0-18.37-10.61L311.3,50,266.71,4.5a15,15,0,0,0-21.42,0L200.7,50l-60.82-16.3a15,15,0,0,0-18.37,10.61l-16.32,60.92L44.27,121.51a15,15,0,0,0-10.61,18.37L50,200.7,4.5,245.29a15,15,0,0,0,0,21.42L50,311.3l-16.3,60.82a15,15,0,0,0,10.61,18.37l48.3,12.94L33.82,485.08a15,15,0,0,0,16.56,23.11L201,462.29l44.34,45.21a15,15,0,0,0,21.42,0L311.3,462l60.82,16.29a15,15,0,0,0,18.37-10.6l16.32-60.92,60.92-16.32a15,15,0,0,0,10.61-18.37L462,311.29l45.46-44.58a15,15,0,0,0,0-21.42Z" transform="translate(0 0)"/></svg>
