<svg id="Layer_1" data-name="Layer 1" xmlns="http://www.w3.org/2000/svg" viewBox="0 0 512 512"><path fill="#28005f" fill-opacity="0.7" d="M0,256a74.89,74.89,0,0,0,30.51,60.18A74.77,74.77,0,0,0,90.93,420.43a75.08,75.08,0,0,0,104.56,60.21C209.64,500.08,232,512,256,512s46.36-11.92,60.5-31.36A75.22,75.22,0,0,0,402,462.36l87.8,46.86a15,15,0,0,0,20.39-20.31l-47.05-87.45a74.65,74.65,0,0,0,18.32-85.28,74.61,74.61,0,0,0,0-120.36A74.78,74.78,0,0,0,421.07,91.57,75.1,75.1,0,0,0,316.5,31.35C302.36,11.92,280,0,256,0s-46.36,11.92-60.5,31.35A75.1,75.1,0,0,0,90.93,91.57,74.78,74.78,0,0,0,30.51,195.82,74.89,74.89,0,0,0,0,256Z"/></svg>
