<svg id="Capa_1" data-name="Capa 1" xmlns="http://www.w3.org/2000/svg" viewBox="0 0 512 512"><path fill="#28005f" fill-opacity="0.7" d="M13.52,509.38a10.48,10.48,0,0,1-2-14.1L138.21,312.12l-56.5-1.77a11.19,11.19,0,0,1-10-6.59,10.42,10.42,0,0,1,2.08-11.45l40.63-42.51L7.16,209.9A10.72,10.72,0,0,1,.09,198.53a11,11,0,0,1,9.75-9.35l114.3-13.4L95.62,124.42a10.41,10.41,0,0,1,1-11.59,11.44,11.44,0,0,1,11.38-4l58.65,12.77L148.94,12.42A10.7,10.7,0,0,1,155.65.85,11.48,11.48,0,0,1,169,4.3l69.12,88.3L269.2,43.53a11.38,11.38,0,0,1,10.88-5.09,11.13,11.13,0,0,1,9.34,7.38l18.63,55.32,89.73-69.45a11.55,11.55,0,0,1,13.78-.21,10.5,10.5,0,0,1,3.55,12.8L370,146.26l60.78,2.52a11.17,11.17,0,0,1,9.89,6.69,10.47,10.47,0,0,1-2.2,11.43l-40.73,41.69,107.13,39.84a10.72,10.72,0,0,1,7.07,11.37,11,11,0,0,1-9.75,9.35L387.71,282.56l28.14,51.73a10.42,10.42,0,0,1-1.07,11.58,11.44,11.44,0,0,1-11.39,3.89l-58-13,17.67,109.1a10.7,10.7,0,0,1-6.71,11.57A11.48,11.48,0,0,1,343,454L274.12,366,244.35,414.8a11.37,11.37,0,0,1-10.78,5.27,11.14,11.14,0,0,1-9.48-7.22l-19.61-55L28.32,509.26a11.56,11.56,0,0,1-14.8.12Z" transform="translate(0 0)"/></svg>
