<svg id="Capa_1" data-name="Capa 1" xmlns="http://www.w3.org/2000/svg" viewBox="0 0 512 512"><path fill="#28005f" fill-opacity="0.7" d="M491.15,512a11.4,11.4,0,0,1-7.47-2.74L307.52,357.84l-19.61,55a11.14,11.14,0,0,1-9.48,7.22,11.37,11.37,0,0,1-10.78-5.27L237.88,366,169,454a11.48,11.48,0,0,1-13.31,3.44,10.7,10.7,0,0,1-6.71-11.57l17.67-109.1-58,13a11.44,11.44,0,0,1-11.39-3.89,10.42,10.42,0,0,1-1.07-11.58l28.14-51.73L9.84,269.15A11,11,0,0,1,.09,259.8a10.72,10.72,0,0,1,7.07-11.37l107.13-39.84L73.56,166.9a10.47,10.47,0,0,1-2.2-11.43,11.17,11.17,0,0,1,9.89-6.69L142,146.26l-45.14-102a10.5,10.5,0,0,1,3.55-12.8,11.55,11.55,0,0,1,13.78.21L204,101.14l18.63-55.32a11.13,11.13,0,0,1,9.34-7.38,11.38,11.38,0,0,1,10.88,5.09L273.92,92.6,343,4.3A11.48,11.48,0,0,1,356.35.85a10.7,10.7,0,0,1,6.71,11.57L345.37,121.63,404,108.86a11.44,11.44,0,0,1,11.38,4,10.41,10.41,0,0,1,1,11.59l-28.52,51.36,114.3,13.4a11,11,0,0,1,9.75,9.35,10.72,10.72,0,0,1-7.07,11.37l-107.3,39.9,40.63,42.51a10.42,10.42,0,0,1,2.08,11.45,11.19,11.19,0,0,1-10,6.59l-56.5,1.77L500.48,495.28a10.48,10.48,0,0,1-2,14.1A11.46,11.46,0,0,1,491.15,512Z" transform="translate(0 0)"/></svg>
