<svg id="Layer_1" data-name="Layer 1" xmlns="http://www.w3.org/2000/svg" viewBox="0 0 512 512"><path fill="#28005f" fill-opacity="0.7" d="M36.21,51.36C12.86,82.49,0,125.14,0,171.45c0,87.23,48.26,143.82,128.47,222.29L64.9,484.27a19,19,0,0,0-.33,20.83,14.45,14.45,0,0,0,12,6.9,13.41,13.41,0,0,0,5.55-1.22l114-51.94c15.59,15,32.38,31.19,50.43,49a13.61,13.61,0,0,0,19.56.05C292.2,482.35,316,459.45,337,439.26,464.35,316.78,512,270.94,512,171.45c0-46.36-12.72-89-35.82-120C451.51,18.26,416,0,376.19,0c-52.11,0-97.4,33.86-119.84,83.27C233.92,33.86,188.63,0,136.52,0,96.68,0,61.06,18.24,36.21,51.36Z" transform="translate(0 0)"/></svg>
