<svg id="Layer_1" data-name="Layer 1" xmlns="http://www.w3.org/2000/svg" viewBox="0 0 512 512"><path fill="#28005f" fill-opacity="0.7" d="M375.48,0c-52.1,0-97.4,33.86-119.83,83.27C233.21,33.86,187.92,0,135.81,0,96,0,60.49,18.26,35.82,51.41,12.72,82.46,0,125.09,0,171.45c0,99.49,47.65,145.33,175,267.81,21,20.19,44.81,43.09,70.9,68.62a13.61,13.61,0,0,0,19.56-.05c18.05-17.8,34.84-34,50.43-49l114,51.94a13.41,13.41,0,0,0,5.55,1.22,14.45,14.45,0,0,0,12-6.9,19,19,0,0,0-.33-20.83l-63.57-90.53C463.74,315.27,512,258.68,512,171.45c0-46.31-12.86-89-36.21-120.09C450.94,18.24,415.32,0,375.48,0Z"/></svg>
