<svg id="Capa_1" data-name="Capa 1" xmlns="http://www.w3.org/2000/svg" viewBox="0 0 512 512"><path fill="#28005f" fill-opacity="0.7" d="M505.59,295.18A115.75,115.75,0,0,1,467,257.06a115.67,115.67,0,0,1,39-37.72,12.25,12.25,0,0,0-4.39-22.66,115.63,115.63,0,0,1-50.26-20.44,115.78,115.78,0,0,1,21.58-49.77,12.24,12.24,0,0,0-12.72-19.25,115.88,115.88,0,0,1-54.26.35,115.87,115.87,0,0,1,.9-54.25A12.24,12.24,0,0,0,387.71,40.4a115.84,115.84,0,0,1-50,21.09A115.7,115.7,0,0,1,317.79,11a12.25,12.25,0,0,0-22.61-4.61A115.84,115.84,0,0,1,257.06,45,115.76,115.76,0,0,1,219.34,6a12.24,12.24,0,0,0-22.65,4.39,115.65,115.65,0,0,1-20.45,50.26,115.67,115.67,0,0,1-49.77-21.59,12.25,12.25,0,0,0-19.25,12.73,115.83,115.83,0,0,1,.35,54.25,115.61,115.61,0,0,1-54.25-.9A12.25,12.25,0,0,0,40.4,124.29a115.79,115.79,0,0,1,21.09,50A115.83,115.83,0,0,1,11,194.21a12.25,12.25,0,0,0-4.61,22.61A115.81,115.81,0,0,1,45,254.93,115.61,115.61,0,0,1,6,292.66a12.24,12.24,0,0,0,4.39,22.65,115.77,115.77,0,0,1,50.26,20.45,115.78,115.78,0,0,1-21.58,49.77,12.24,12.24,0,0,0,12.72,19.25,115.88,115.88,0,0,1,54.26-.35,115.87,115.87,0,0,1-.9,54.25,12.24,12.24,0,0,0,19.12,12.92,115.84,115.84,0,0,1,50-21.09A115.7,115.7,0,0,1,194.21,501a12.25,12.25,0,0,0,22.61,4.61A115.84,115.84,0,0,1,254.94,467a115.7,115.7,0,0,1,37.73,39,12.25,12.25,0,0,0,10.54,6,11.58,11.58,0,0,0,2.33-.23,12.24,12.24,0,0,0,9.78-10.18,115.75,115.75,0,0,1,20.44-50.26,115.64,115.64,0,0,1,49.78,21.58,12.24,12.24,0,0,0,19.25-12.72,115.74,115.74,0,0,1-.35-54.26,115.87,115.87,0,0,1,54.25.9,12.24,12.24,0,0,0,12.91-19.12,115.65,115.65,0,0,1-21.08-50A115.66,115.66,0,0,1,501,317.79a12.24,12.24,0,0,0,4.61-22.61Z" transform="translate(0 0)"/></svg>
