<svg id="Capa_1" data-name="Capa 1" xmlns="http://www.w3.org/2000/svg" viewBox="0 0 512 512">
  <path fill="#28005f" fill-opacity="0.7" d="M320.84,400.52c0-37.54,35-68.08,78.12-68.08s78.12,30.54,78.12,68.08S442,468.6,399,468.6,320.84,438.06,320.84,400.52Z" transform="translate(0 0)"/>
  <path fill="#28005f" fill-opacity="0.7" d="M430.07,476.3c0-19.68,18.38-35.7,41-35.7s41,16,41,35.7S493.62,512,471,512,430.07,496,430.07,476.3Z" transform="translate(0 0)"/>
  <path fill="#28005f" fill-opacity="0.7" d="M126.58,304.31C56.42,302.45,0,252.13,0,190.54,0,129.94,54.64,80.25,123.25,76.91,139,31.85,187.59,0,242.4,0c32.35,0,63.36,11,86.5,30.47A148.34,148.34,0,0,1,381,21.06c72.25,0,131,51.23,131,114.19,0,39.84-23.81,76.64-62.56,97.36-14.93,75.6-91.15,131.94-179.84,131.94C214.05,364.55,161.08,342.13,126.58,304.31Z" transform="translate(0 0)"/></svg>
