<svg id="Capa_1" data-name="Capa 1" xmlns="http://www.w3.org/2000/svg" viewBox="0 0 512 512">
  <path fill="#28005f" fill-opacity="0.7" d="M113,468.6c-43.08,0-78.12-30.54-78.12-68.08S70,332.44,113,332.44s78.12,30.54,78.12,68.08S156.12,468.6,113,468.6Z"/>
  <path fill="#28005f" fill-opacity="0.7" d="M41,512c-22.59,0-41-16-41-35.7s18.38-35.7,41-35.7,41,16,41,35.7S63.55,512,41,512Z"/>
  <path fill="#28005f" fill-opacity="0.7" d="M242.4,364.55c-88.69,0-164.91-56.34-179.84-131.94C23.81,211.89,0,175.09,0,135.25c0-63,58.78-114.19,131-114.19a148.34,148.34,0,0,1,52.07,9.41C206.24,11,237.25,0,269.6,0,324.41,0,373,31.85,388.75,76.91,457.36,80.25,512,129.94,512,190.54c0,61.59-56.42,111.91-126.58,113.77C350.92,342.13,298,364.55,242.4,364.55Z"/></svg>
