<svg id="Layer_1" data-name="Layer 1" xmlns="http://www.w3.org/2000/svg" viewBox="0 0 512 513.46">
  <path fill="#28005f" fill-opacity="0.7" d="M300.54,3C161.47-21.59,28.44,71.31,4,210c-6.74,38.24-4.2,77.7,7.55,117.31,14.05,47.36,17.41,92.72,10,134.83l-4.94,28c-1.14,6.48.67,13,4.74,17,9.31,9.16,19.49-.83,22.45-1.29,42.76-21,87.26-24.93,125.28-11.16a257.54,257.54,0,0,0,42.82,11.41C351,530.67,484,437.77,508.43,299.05S439.61,27.49,300.54,3Z" transform="translate(-0.32 0.98)"/>
  <path  fill="#28005f" fill-opacity="0.7" d="M4.21,300.51C28.65,439.23,161.68,532.13,300.76,507.59a257.43,257.43,0,0,0,42.81-11.41c38-13.77,82.52-9.8,125.29,11.16,3,.46,13.14,10.44,22.44,1.28,4.08-4,5.89-10.48,4.74-17l-4.93-28c-7.42-42.1-4.06-87.46,10-134.82,11.75-39.61,14.29-79.08,7.56-117.31C484.2,72.77,351.17-20.13,212.1,4.41S-20.24,161.77,4.21,300.51Z" transform="translate(-0.32 0.98)"/></svg>
